<svg width="144" height="28" viewBox="0 0 144 28" fill="none" xmlns="http://www.w3.org/2000/svg">
<path fill-rule="evenodd" clip-rule="evenodd" d="M123.589 5.80841C120.651 5.80841 118.758 7.10898 117.326 9.04559L120.115 11.0406C120.756 9.96191 121.903 8.95663 123.619 8.95663C125.989 8.95663 126.645 9.88799 126.72 12.0754H122.679C119.339 12.0754 116.744 13.1392 116.744 16.3469C116.744 19.4357 119.101 21.1798 122.157 21.1798C123.857 21.1798 125.84 20.4409 126.809 18.9185L127.033 20.8846H130.03V11.9275C130.03 8.32111 127.644 5.80841 123.589 5.80841ZM126.735 14.795C126.511 16.5387 125.124 18.135 122.887 18.135C121.263 18.135 120.472 17.4406 120.472 16.4648C120.472 15.5339 121.233 14.6766 122.887 14.6766H126.735V14.795Z" fill="#000032"/>
<path fill-rule="evenodd" clip-rule="evenodd" d="M101.508 20.8845H105.146V12.7998C105.146 10.2276 106.429 9.13397 108.472 9.13397C110.336 9.13397 111.32 10.538 111.32 12.4745V20.8845H114.958V12.0164C114.958 8.92709 113.422 5.80835 109.516 5.80835C108.054 5.80835 106.34 6.38493 105.146 7.83338V6.1191H101.508V20.8845Z" fill="#000032"/>
<path fill-rule="evenodd" clip-rule="evenodd" d="M93.445 18.5787C90.7906 18.2535 88.957 18.224 88.957 17.0123C88.957 16.6721 89.0906 16.4208 89.389 16.2285C90.2394 16.5981 91.193 16.805 92.2218 16.805C95.4874 16.805 98.2762 14.7065 98.2762 11.4104C98.2762 10.4496 98.0522 9.57765 97.6346 8.83869L99.7962 7.10898L97.9034 4.81812L95.6218 6.75424C94.6226 6.14817 93.4002 5.8084 92.1034 5.8084C88.8074 5.8084 85.9898 8.02533 85.9898 11.233C85.9898 12.5336 86.4514 13.7013 87.2266 14.6325C86.3474 15.401 85.8402 16.3469 85.8402 17.6474C85.8402 19.0669 86.437 19.9533 87.3018 20.5298L85.5714 21.9783C85.5418 22.1261 85.5122 22.2741 85.5122 22.6138C85.5122 25.6437 87.9578 27.8756 92.6546 27.8756C96.3522 27.8756 99.245 26.2792 99.245 22.9391C99.245 19.5541 96.2634 18.9485 93.445 18.5787ZM92.2218 8.60189C93.8178 8.60189 94.6674 9.71061 94.6674 11.2625C94.6674 12.7699 93.8474 13.8637 92.2218 13.8637C90.6114 13.8637 89.7466 12.7699 89.7466 11.2625C89.7466 9.71061 90.6418 8.60189 92.2218 8.60189ZM92.6242 25.097C90.8202 25.097 89.2698 24.5794 88.8378 23.1015L88.7482 22.7023L89.553 21.3722C90.4626 21.5496 91.3866 21.6235 92.1618 21.6975C94.6378 21.9488 95.801 22.2146 95.801 23.3378C95.801 24.5205 94.5482 25.097 92.6242 25.097Z" fill="#000032"/>
<path fill-rule="evenodd" clip-rule="evenodd" d="M79.3865 20.8845H83.0247V6.11911H79.3865V20.8845Z" fill="#000032"/>
<path fill-rule="evenodd" clip-rule="evenodd" d="M79.2971 3.32561H83.1142V0H79.2971V3.32561Z" fill="#000032"/>
<path fill-rule="evenodd" clip-rule="evenodd" d="M71.0844 21.1799C73.9025 21.1799 76.8996 19.6725 76.8996 16.258C76.8996 10.8338 69.3247 12.1639 69.3247 9.93201C69.3247 9.23753 70.0556 8.66097 71.2482 8.66097C72.8587 8.66097 73.6939 9.62177 74.2004 10.5381L77.0191 9.01569C75.8855 7.02013 73.9323 5.80847 71.3676 5.80847C68.49 5.80847 65.8357 7.28642 65.8357 10.4052C65.8357 15.6224 73.3208 13.9526 73.3208 16.4354C73.3208 17.2188 72.5899 18.1946 70.9054 18.1946C68.9225 18.1946 68.1321 16.8346 67.7294 15.7703L64.8367 17.0414C65.5675 19.3178 67.9528 21.1799 71.0844 21.1799Z" fill="#000032"/>
<path fill-rule="evenodd" clip-rule="evenodd" d="M50.0183 20.8845H53.6566V12.7998C53.6566 10.2276 54.9389 9.13397 56.9817 9.13397C58.8457 9.13397 59.8297 10.538 59.8297 12.4745V20.8845H63.4679V12.0164C63.4679 8.92709 61.9321 5.80835 58.0256 5.80835C56.5639 5.80835 54.8491 6.38493 53.6566 7.83338V6.1191H50.0183V20.8845Z" fill="#000032"/>
<path fill-rule="evenodd" clip-rule="evenodd" d="M38.5398 20.8845H42.0586V14.647C42.0586 10.8927 43.8334 9.32629 45.5331 9.32629C46.1147 9.32629 46.6666 9.50365 47.1581 9.82893L48.8134 6.87258C48.0976 6.14858 47.0689 5.80835 46.085 5.80835C44.4146 5.80835 42.73 6.81361 42.0884 8.60181V6.1191H38.5398V20.8845Z" fill="#000032"/>
<path fill-rule="evenodd" clip-rule="evenodd" d="M28.9851 5.80841C26.0475 5.80841 24.1542 7.10898 22.7228 9.04559L25.5112 11.0406C26.1518 9.96191 27.3001 8.95663 29.0149 8.95663C31.3859 8.95663 32.0417 9.88799 32.1163 12.0754H28.0758C24.7354 12.0754 22.1411 13.1392 22.1411 16.3469C22.1411 19.4357 24.497 21.1798 27.5536 21.1798C29.2538 21.1798 31.2367 20.4409 32.206 18.9185L32.4293 20.8846H35.4264V11.9275C35.4264 8.32111 33.0412 5.80841 28.9851 5.80841ZM32.1314 14.795C31.9076 16.5387 30.521 18.135 28.2845 18.135C26.659 18.135 25.869 17.4406 25.869 16.4648C25.869 15.5339 26.6292 14.6766 28.2845 14.6766H32.1314V14.795Z" fill="#000032"/>
<path fill-rule="evenodd" clip-rule="evenodd" d="M21.2043 13.2578C21.2043 9.96211 19.5193 5.80862 14.3008 5.80862C9.26033 5.80862 6.99414 9.71083 6.99414 13.5536C6.99414 17.5297 9.40953 21.1801 14.5393 21.1801C17.0439 21.1801 19.0274 20.3082 20.6529 18.5195L18.1478 16.3471C17.1039 17.4997 15.9108 17.9135 14.569 17.9135C12.2282 17.9135 11.1546 16.6129 10.8415 14.6768H21.0698C21.1449 14.4695 21.2043 13.8639 21.2043 13.2578ZM10.8415 12.0752C11.1843 10.228 12.1239 8.83843 14.2707 8.83843C15.8513 8.83843 17.1336 9.62187 17.5062 11.1443C17.5959 11.44 17.6256 11.7504 17.6256 12.0752H10.8415Z" fill="#000032"/>
<path fill-rule="evenodd" clip-rule="evenodd" d="M0 20.9126H3.63824V0.0927429H0V20.9126Z" fill="#000032"/>
<path fill-rule="evenodd" clip-rule="evenodd" d="M133.254 20.8208H136.893V0.00131226H133.254V20.8208Z" fill="#000032"/>
<mask id="mask0_183_3667" style="mask-type:alpha" maskUnits="userSpaceOnUse" x="139" y="16" width="5" height="5">
<path fill-rule="evenodd" clip-rule="evenodd" d="M139.253 16.1393H143.972V20.8174H139.253V16.1393Z" fill="white"/>
</mask>
<g mask="url(#mask0_183_3667)">
<path fill-rule="evenodd" clip-rule="evenodd" d="M141.613 20.8174C142.916 20.8174 143.972 19.77 143.972 18.4783C143.972 17.1866 142.916 16.1393 141.613 16.1393C140.309 16.1393 139.253 17.1866 139.253 18.4783C139.253 19.77 140.309 20.8174 141.613 20.8174Z" fill="#00B67A"/>
</g>
</svg>
