<svg width="16" height="17" viewBox="0 0 16 17" fill="none" xmlns="http://www.w3.org/2000/svg">
<path d="M8 0.5C6.41775 0.5 4.87103 0.969192 3.55544 1.84824C2.23985 2.72729 1.21447 3.97672 0.608967 5.43853C0.00346625 6.90034 -0.15496 8.50887 0.153721 10.0607C0.462403 11.6126 1.22433 13.038 2.34315 14.1569C3.46197 15.2757 4.88743 16.0376 6.43928 16.3463C7.99113 16.655 9.59966 16.4965 11.0615 15.891C12.5233 15.2855 13.7727 14.2602 14.6518 12.9446C15.5308 11.629 16 10.0822 16 8.5C16 6.37827 15.1571 4.34344 13.6569 2.84315C12.1566 1.34285 10.1217 0.5 8 0.5ZM8 15.3177C6.65158 15.3177 5.33344 14.9179 4.21227 14.1687C3.0911 13.4196 2.21726 12.3548 1.70124 11.109C1.18522 9.86325 1.05021 8.49244 1.31327 7.16993C1.57633 5.84741 2.22566 4.63261 3.17914 3.67913C4.13261 2.72566 5.34742 2.07633 6.66993 1.81327C7.99244 1.5502 9.36326 1.68522 10.609 2.20123C11.8548 2.71725 12.9196 3.5911 13.6687 4.71227C14.4179 5.83344 14.8177 7.15158 14.8177 8.5C14.8177 10.3082 14.0994 12.0423 12.8209 13.3209C11.5423 14.5994 9.80818 15.3177 8 15.3177Z" fill="#064E3B"/>
<path d="M8 15.3177C6.65158 15.3177 5.33344 14.9179 4.21227 14.1687C3.0911 13.4196 2.21726 12.3548 1.70124 11.109C1.18522 9.86325 1.05021 8.49244 1.31327 7.16993C1.57633 5.84741 2.22566 4.63261 3.17914 3.67913C4.13261 2.72566 5.34742 2.07633 6.66993 1.81327C7.99244 1.5502 9.36326 1.68522 10.609 2.20123C11.8548 2.71725 12.9196 3.5911 13.6687 4.71227C14.4179 5.83344 14.8177 7.15158 14.8177 8.5C14.8177 10.3082 14.0994 12.0423 12.8209 13.3209C11.5423 14.5994 9.80818 15.3177 8 15.3177Z" fill="#064E3B"/>
<path d="M10.7586 6.07582L7.05418 9.58321L5.35959 7.84922C5.30525 7.79359 5.24049 7.7492 5.16899 7.7186C5.0975 7.688 5.02068 7.67177 4.94292 7.67086C4.86515 7.66994 4.78797 7.68435 4.71578 7.71327C4.64358 7.74218 4.57779 7.78503 4.52216 7.83937C4.46652 7.89371 4.42214 7.95848 4.39153 8.02997C4.36093 8.10146 4.34471 8.17829 4.34379 8.25605C4.34288 8.33381 4.35729 8.411 4.3862 8.48319C4.41511 8.55538 4.45796 8.62118 4.5123 8.67681L6.62068 10.8246C6.67249 10.8826 6.7364 10.9285 6.80789 10.9592C6.87939 10.9898 6.95673 11.0044 7.03447 11.0019C7.18628 10.9978 7.33219 10.9422 7.44826 10.8443L11.5665 6.94282C11.6802 6.83757 11.7481 6.69187 11.7554 6.53709C11.7628 6.3823 11.7091 6.23082 11.6059 6.11523C11.4973 6.00022 11.3482 5.93184 11.1902 5.92449C11.0322 5.91714 10.8774 5.97139 10.7586 6.07582Z" fill="white"/>
</svg>
