<svg width="21" height="20" viewBox="0 0 21 20" fill="none" xmlns="http://www.w3.org/2000/svg">
<path d="M17.893 17.0413H14.7815V12.4004C14.7815 11.2937 14.7607 9.86912 13.1631 9.86912C11.5425 9.86912 11.2946 11.0749 11.2946 12.3199V17.041H8.18302V7.49741H11.1701V8.80165H11.2119C11.5109 8.31485 11.9428 7.91439 12.4618 7.64291C12.9808 7.37143 13.5674 7.23911 14.1592 7.26003C17.3128 7.26003 17.8943 9.23567 17.8943 11.8059L17.893 17.0413ZM4.67217 6.19287C4.31505 6.19293 3.96591 6.09213 3.66893 5.90321C3.37196 5.71429 3.14049 5.44574 3.00376 5.13153C2.86704 4.81731 2.8312 4.47153 2.90081 4.13792C2.97042 3.80431 3.14234 3.49785 3.39483 3.2573C3.64731 3.01675 3.96902 2.8529 4.31927 2.78649C4.66952 2.72007 5.03258 2.75406 5.36255 2.88417C5.69252 3.01428 5.97456 3.23465 6.17303 3.51743C6.37149 3.8002 6.47746 4.13268 6.47752 4.47282C6.47756 4.69866 6.43089 4.92229 6.34019 5.13095C6.24948 5.33962 6.11653 5.52922 5.94889 5.68895C5.78125 5.84867 5.5822 5.97538 5.36314 6.06184C5.14408 6.1483 4.9093 6.19282 4.67217 6.19287ZM6.22794 17.0413H3.11316V7.49741H6.22794V17.0413ZM19.4442 0.00136263H1.54962C1.14346 -0.00300274 0.752078 0.146386 0.46151 0.416702C0.170942 0.687018 0.00495693 1.05614 0 1.44297V18.5567C0.00478727 18.9438 0.170675 19.3131 0.461233 19.5837C0.751791 19.8543 1.14326 20.004 1.54962 19.9999H19.4442C19.8514 20.0047 20.244 19.8555 20.5357 19.5849C20.8274 19.3143 20.9944 18.9445 21 18.5567V1.44174C20.9942 1.05414 20.8271 0.684596 20.5354 0.414287C20.2436 0.143978 19.8512 -0.00498453 19.4442 0.000127351" fill="black"/>
</svg>
